# This file uses centimeters as units for non-parametric coordinates.

g default
v -1.753806 0.342560 1.753806
v 1.753806 0.342560 1.753806
v 1.753806 0.342560 -1.753806
v -1.753806 0.342560 -1.753806
v -1.902341 0.006475 1.902341
v -1.920549 0.024684 1.920549
v 1.920549 0.024684 1.920549
v 1.902341 0.006475 1.902341
v -1.920549 0.324351 1.920549
v -1.902341 0.342560 1.902341
v 1.920549 0.324351 1.920549
v 1.902341 0.342560 1.902341
v -1.920549 0.324351 -1.920549
v -1.902341 0.342560 -1.902341
v 1.920549 0.324351 -1.920549
v 1.902341 0.342560 -1.902341
v -1.920549 0.024684 -1.920549
v -1.902341 0.006475 -1.902341
v 1.902341 0.006475 -1.902341
v 1.920549 0.024684 -1.920549
v -1.753806 0.415403 1.753806
v -1.735597 0.433612 1.735597
v 1.735597 0.433612 1.735597
v 1.753806 0.415403 1.753806
v 1.735597 0.433612 -1.735597
v 1.753806 0.415403 -1.753806
v -1.735597 0.433612 -1.735597
v -1.753806 0.415403 -1.753806
vt 0.954898 0.094082
vt 0.957068 0.091912
vt 0.957068 0.549636
vt 0.954898 0.547466
vt 0.501515 0.094082
vt 0.499345 0.091912
vt 0.501515 0.547466
vt 0.499345 0.549636
vt 0.026085 0.092442
vt 0.028673 0.095031
vt 0.028670 0.549885
vt 0.026081 0.552473
vt 0.486116 0.092445
vt 0.483527 0.095034
vt 0.486113 0.552477
vt 0.483524 0.549888
vt 0.049544 0.115894
vt 0.052196 0.118549
vt 0.052188 0.526363
vt 0.049534 0.529012
vt 0.462664 0.115905
vt 0.460009 0.118556
vt 0.462653 0.529023
vt 0.460002 0.526370
vt 0.468104 0.110430
vt 0.044069 0.110454
vt 0.468128 0.534465
vt 0.044093 0.534490
vt 0.252764 0.034097
vt 0.479869 0.034097
vt 0.479869 0.056860
vt 0.252764 0.056860
vt 0.025659 0.056860
vt 0.706974 0.034097
vt 0.025659 0.034097
vt 0.934080 0.056860
vt 0.706974 0.056860
vt 0.934080 0.034097
vn -0.707107 -0.707107 0.000000
vn -0.707107 -0.707107 0.000000
vn -0.707107 -0.707107 0.000000
vn -0.707107 -0.707107 0.000000
vn 0.000000 -0.707106 0.707107
vn 0.000000 -0.707106 0.707107
vn 0.000000 -0.707106 0.707107
vn 0.000000 -0.707106 0.707107
vn 0.707107 -0.707107 0.000000
vn 0.707107 -0.707107 0.000000
vn 0.707107 -0.707107 0.000000
vn 0.707107 -0.707107 0.000000
vn -0.707108 0.707106 0.000000
vn -0.707108 0.707106 0.000000
vn -0.707108 0.707106 0.000000
vn -0.707108 0.707106 0.000000
vn 0.000000 0.707105 0.707108
vn 0.000000 0.707105 0.707108
vn 0.000000 0.707105 0.707108
vn 0.000000 0.707105 0.707108
vn 0.707108 0.707106 0.000000
vn 0.707108 0.707106 0.000000
vn 0.707108 0.707106 0.000000
vn 0.707108 0.707106 0.000000
vn 0.000000 0.707105 -0.707108
vn 0.000000 0.707105 -0.707108
vn 0.000000 0.707105 -0.707108
vn 0.000000 0.707105 -0.707108
vn 0.000000 -0.707106 -0.707107
vn 0.000000 -0.707106 -0.707107
vn 0.000000 -0.707106 -0.707107
vn 0.000000 -0.707106 -0.707107
vn -0.707105 0.707108 0.000000
vn -0.707105 0.707108 0.000000
vn -0.707105 0.707108 0.000000
vn -0.707105 0.707108 0.000000
vn 0.000000 0.707108 0.707105
vn 0.000000 0.707108 0.707105
vn 0.000000 0.707108 0.707105
vn 0.000000 0.707108 0.707105
vn 0.707105 0.707108 0.000000
vn 0.707105 0.707108 0.000000
vn 0.707105 0.707108 0.000000
vn 0.707105 0.707108 0.000000
vn 0.000000 0.707108 -0.707105
vn 0.000000 0.707108 -0.707105
vn 0.000000 0.707108 -0.707105
vn 0.000000 0.707108 -0.707105
vn 0.000000 0.000000 1.000000
vn 0.000000 0.000000 1.000000
vn 0.000000 0.000000 1.000000
vn 0.000000 0.000000 1.000000
vn 0.000000 1.000000 0.000000
vn 0.000000 1.000000 0.000000
vn 0.000000 1.000000 0.000000
vn 0.000000 1.000000 0.000000
vn 0.000000 0.000000 -1.000000
vn 0.000000 0.000000 -1.000000
vn 0.000000 0.000000 -1.000000
vn 0.000000 0.000000 -1.000000
vn 0.000000 -1.000000 0.000000
vn 0.000000 -1.000000 0.000000
vn 0.000000 -1.000000 0.000000
vn 0.000000 -1.000000 0.000000
vn 1.000000 0.000000 0.000000
vn 1.000000 0.000000 0.000000
vn 1.000000 0.000000 0.000000
vn 1.000000 0.000000 0.000000
vn -1.000000 0.000000 0.000000
vn -1.000000 0.000000 0.000000
vn -1.000000 0.000000 0.000000
vn -1.000000 0.000000 0.000000
vn 0.000000 1.000000 -0.000000
vn 0.000000 1.000000 -0.000000
vn 0.000000 1.000000 -0.000000
vn 0.000000 1.000000 -0.000000
vn 0.000000 1.000000 0.000000
vn 0.000000 1.000000 0.000000
vn 0.000000 1.000000 0.000000
vn 0.000000 1.000000 0.000000
vn 0.000000 0.000000 1.000000
vn 0.000000 0.000000 1.000000
vn 0.000000 0.000000 1.000000
vn 0.000000 0.000000 1.000000
vn 1.000000 0.000000 0.000000
vn 1.000000 0.000000 0.000000
vn 1.000000 0.000000 0.000000
vn 1.000000 0.000000 0.000000
vn 0.000000 0.000000 -1.000000
vn 0.000000 0.000000 -1.000000
vn 0.000000 0.000000 -1.000000
vn 0.000000 0.000000 -1.000000
vn -1.000000 0.000000 0.000000
vn -1.000000 0.000000 0.000000
vn -1.000000 0.000000 0.000000
vn -1.000000 0.000000 0.000000
s off
g pCube1
f 5/1/1 6/2/2 17/3/3 18/4/4
f 6/2/5 5/1/6 8/5/7 7/6/8
f 7/6/9 8/5/10 19/7/11 20/8/12
f 9/9/13 10/10/14 14/11/15 13/12/16
f 10/10/17 9/9/18 11/13/19 12/14/20
f 12/14/21 11/13/22 15/15/23 16/16/24
f 13/12/25 14/11/26 16/16/27 15/15/28
f 18/4/29 17/3/30 20/8/31 19/7/32
f 21/17/33 22/18/34 27/19/35 28/20/36
f 22/18/37 21/17/38 24/21/39 23/22/40
f 23/22/41 24/21/42 26/23/43 25/24/44
f 25/24/45 26/23/46 28/20/47 27/19/48
f 6/29/49 7/30/50 11/31/51 9/32/52
f 22/18/53 23/22/54 25/24/55 27/19/56
f 13/36/57 15/37/58 20/34/59 17/38/60
f 18/4/61 19/7/62 8/5/63 5/1/64
f 7/30/65 20/34/66 15/37/67 11/31/68
f 17/35/69 6/29/70 9/32/71 13/33/72
s 1
f 10/10/73 12/14/74 2/25/75 1/26/76
f 12/14/74 16/16/77 3/27/78 2/25/75
f 16/16/77 14/11/79 4/28/80 3/27/78
f 14/11/79 10/10/73 1/26/76 4/28/80
s off
f 1/26/81 2/25/82 24/21/83 21/17/84
f 2/25/85 3/27/86 26/23/87 24/21/88
f 3/27/89 4/28/90 28/20/91 26/23/92
f 4/28/93 1/26/94 21/17/95 28/20/96
