# This file uses centimeters as units for non-parametric coordinates.

g default
v -2.627142 5.590881 0.154357
v -2.627142 5.608030 0.171506
v -2.644291 5.608030 0.154357
v 2.644291 5.608030 0.154357
v 2.627142 5.608030 0.171506
v 2.627142 5.590881 0.154357
v -2.644291 9.408655 0.154357
v -2.627142 9.408655 0.171506
v -2.627142 9.425804 0.154357
v 2.627142 9.425804 0.154357
v 2.627142 9.408655 0.171506
v 2.644291 9.408655 0.154357
v -2.644291 9.408655 -0.154357
v -2.627142 9.425804 -0.154357
v -2.627142 9.408655 -0.171506
v 2.627142 9.408655 -0.171506
v 2.627142 9.425804 -0.154357
v 2.644291 9.408655 -0.154357
v -2.644291 5.608030 -0.154357
v -2.627142 5.608030 -0.171506
v -2.627142 5.590881 -0.154357
v 2.627142 5.590881 -0.154357
v 2.627142 5.608030 -0.171506
v 2.644291 5.608030 -0.154357
v 0.136476 -0.078599 -0.282008
v 0.116093 -0.078599 -0.322011
v 0.084347 -0.078599 -0.353758
v 0.044344 -0.078599 -0.374141
v 0.000000 -0.078599 -0.381164
v -0.044344 -0.078599 -0.374141
v -0.084347 -0.078599 -0.353758
v -0.116093 -0.078599 -0.322011
v -0.136476 -0.078599 -0.282008
v -0.143499 -0.078599 -0.237665
v -0.136476 -0.078599 -0.193321
v -0.116093 -0.078599 -0.153318
v -0.084347 -0.078599 -0.121572
v -0.044344 -0.078599 -0.101189
v -0.000000 -0.078599 -0.094166
v 0.044344 -0.078599 -0.101189
v 0.084347 -0.078599 -0.121572
v 0.116093 -0.078599 -0.153318
v 0.136476 -0.078599 -0.193321
v 0.143499 -0.078599 -0.237665
v 0.000000 -0.078599 -0.237665
v 0.000000 10.617176 -0.237665
v 0.136476 10.588833 -0.282008
v 0.109183 10.617176 -0.273141
v 0.116093 10.588833 -0.322011
v 0.092877 10.617176 -0.305144
v 0.084347 10.588833 -0.353758
v 0.067479 10.617176 -0.330542
v 0.044344 10.588833 -0.374141
v 0.035476 10.617176 -0.346848
v 0.000000 10.588833 -0.381164
v 0.000000 10.617176 -0.352467
v -0.044344 10.588833 -0.374141
v -0.035476 10.617176 -0.346848
v -0.084347 10.588833 -0.353758
v -0.067479 10.617176 -0.330542
v -0.116093 10.588833 -0.322011
v -0.092877 10.617176 -0.305144
v -0.136476 10.588833 -0.282008
v -0.109183 10.617176 -0.273141
v -0.143499 10.588833 -0.237665
v -0.114802 10.617176 -0.237665
v -0.136476 10.588833 -0.193321
v -0.109183 10.617176 -0.202189
v -0.116093 10.588833 -0.153318
v -0.092877 10.617176 -0.170186
v -0.084347 10.588833 -0.121572
v -0.067479 10.617176 -0.144788
v -0.044344 10.588833 -0.101189
v -0.035476 10.617176 -0.128481
v -0.000000 10.588833 -0.094166
v -0.000000 10.617176 -0.122862
v 0.044344 10.588833 -0.101189
v 0.035476 10.617176 -0.128481
v 0.084347 10.588833 -0.121572
v 0.067479 10.617176 -0.144788
v 0.116093 10.588833 -0.153318
v 0.092877 10.617176 -0.170186
v 0.136476 10.588833 -0.193321
v 0.109183 10.617176 -0.202189
v 0.143499 10.588833 -0.237665
v 0.114802 10.617176 -0.237665
vt 0.642795 0.478093
vt 0.063594 0.054946
vt 0.628693 0.501385
vt 0.626409 0.499764
vt 0.068488 0.057823
vt 0.057630 0.478093
vt 0.631936 0.057823
vt 0.068488 0.464393
vt 0.645046 0.916347
vt 0.055379 0.479883
vt 0.074016 0.499764
vt 0.071731 0.501384
vt 0.055379 0.916347
vt 0.631937 0.464393
vt 0.065833 0.469199
vt 0.626409 0.896466
vt 0.628693 0.894845
vt 0.057630 0.918136
vt 0.071731 0.894844
vt 0.074015 0.896466
vt 0.625268 0.893102
vt 0.625267 0.503128
vt 0.075157 0.893102
vt 0.075157 0.503128
vt 0.634591 0.469200
vt 0.636831 0.467270
vt 0.642795 0.918136
vt 0.063593 0.467270
vt 0.636831 0.054947
vt 0.634591 0.053017
vt 0.645046 0.479883
vt 0.065833 0.053017
vt 0.672078 0.406997
vt 0.672079 0.437654
vt 0.672084 0.590201
vt 0.672077 0.376340
vt 0.672076 0.345682
vt 0.672075 0.315025
vt 0.672074 0.284367
vt 0.672093 0.866858
vt 0.672092 0.836201
vt 0.672091 0.805543
vt 0.672090 0.774886
vt 0.672089 0.744228
vt 0.672088 0.713571
vt 0.672087 0.682914
vt 0.672086 0.652256
vt 0.672085 0.621599
vt 0.672084 0.590941
vt 0.672083 0.560284
vt 0.672082 0.529626
vt 0.672081 0.498969
vt 0.672080 0.468312
vt 0.868091 0.136124
vt 0.863976 0.148792
vt 0.847511 0.146184
vt 0.847510 0.132865
vt 0.886658 0.145584
vt 0.878830 0.156359
vt 0.901393 0.160318
vt 0.890618 0.168147
vt 0.910854 0.178884
vt 0.898187 0.183000
vt 0.914114 0.199465
vt 0.900795 0.199466
vt 0.910855 0.220046
vt 0.898188 0.215931
vt 0.901395 0.238613
vt 0.890620 0.230785
vt 0.886661 0.253348
vt 0.878833 0.242573
vt 0.868095 0.262809
vt 0.863979 0.250142
vt 0.847514 0.266069
vt 0.847514 0.252750
vt 0.826933 0.262810
vt 0.831048 0.250143
vt 0.808366 0.253350
vt 0.816195 0.242575
vt 0.793631 0.238616
vt 0.804406 0.230787
vt 0.784170 0.220050
vt 0.796838 0.215934
vt 0.780910 0.199469
vt 0.794229 0.199469
vt 0.784169 0.178888
vt 0.796837 0.183003
vt 0.793629 0.160321
vt 0.804404 0.168150
vt 0.808363 0.145586
vt 0.816192 0.156361
vt 0.826929 0.136126
vt 0.831045 0.148793
vt 0.977840 0.406987
vt 0.977841 0.437645
vt 0.977839 0.376330
vt 0.977838 0.345672
vt 0.977837 0.315015
vt 0.672095 0.928173
vt 0.672093 0.897515
vt 0.977855 0.897506
vt 0.977856 0.928163
vt 0.977854 0.866849
vt 0.977853 0.836191
vt 0.977852 0.805534
vt 0.977851 0.774876
vt 0.977850 0.744219
vt 0.977849 0.713561
vt 0.977848 0.682904
vt 0.977847 0.652247
vt 0.977847 0.621589
vt 0.977846 0.590932
vt 0.977845 0.560274
vt 0.977844 0.529617
vt 0.977843 0.498960
vt 0.977842 0.468302
vt 0.847512 0.199467
vn -0.707107 -0.707107 0.000000
vn -0.707107 -0.707107 0.000000
vn -0.707107 -0.707107 0.000000
vn -0.707107 -0.707107 0.000000
vn 0.000000 -0.707107 0.707106
vn 0.000000 -0.707107 0.707106
vn 0.000000 -0.707107 0.707106
vn 0.000000 -0.707107 0.707106
vn -0.707105 0.000000 0.707108
vn -0.707105 0.000000 0.707108
vn -0.707105 0.000000 0.707108
vn -0.707105 0.000000 0.707108
vn 0.707107 -0.707107 0.000000
vn 0.707107 -0.707107 0.000000
vn 0.707107 -0.707107 0.000000
vn 0.707107 -0.707107 0.000000
vn 0.707105 0.000000 0.707108
vn 0.707105 0.000000 0.707108
vn 0.707105 0.000000 0.707108
vn 0.707105 0.000000 0.707108
vn -0.707107 0.707107 0.000000
vn -0.707107 0.707107 0.000000
vn -0.707107 0.707107 0.000000
vn -0.707107 0.707107 0.000000
vn 0.000000 0.707115 0.707099
vn 0.000000 0.707115 0.707099
vn 0.000000 0.707115 0.707099
vn 0.000000 0.707115 0.707099
vn 0.707107 0.707107 0.000000
vn 0.707107 0.707107 0.000000
vn 0.707107 0.707107 0.000000
vn 0.707107 0.707107 0.000000
vn -0.707105 0.000000 -0.707108
vn -0.707105 0.000000 -0.707108
vn -0.707105 0.000000 -0.707108
vn -0.707105 0.000000 -0.707108
vn 0.000000 0.707115 -0.707099
vn 0.000000 0.707115 -0.707099
vn 0.000000 0.707115 -0.707099
vn 0.000000 0.707115 -0.707099
vn 0.707105 0.000000 -0.707108
vn 0.707105 0.000000 -0.707108
vn 0.707105 0.000000 -0.707108
vn 0.707105 0.000000 -0.707108
vn 0.000000 -0.707107 -0.707106
vn 0.000000 -0.707107 -0.707106
vn 0.000000 -0.707107 -0.707106
vn 0.000000 -0.707107 -0.707106
vn 0.000000 0.000000 1.000000
vn 0.000000 0.000000 1.000000
vn 0.000000 0.000000 1.000000
vn 0.000000 0.000000 1.000000
vn 0.000000 1.000000 0.000000
vn 0.000000 1.000000 0.000000
vn 0.000000 1.000000 0.000000
vn 0.000000 1.000000 0.000000
vn 0.000000 0.000000 -1.000000
vn 0.000000 0.000000 -1.000000
vn 0.000000 0.000000 -1.000000
vn 0.000000 0.000000 -1.000000
vn 0.000000 -1.000000 0.000000
vn 0.000000 -1.000000 0.000000
vn 0.000000 -1.000000 0.000000
vn 0.000000 -1.000000 0.000000
vn 1.000000 0.000000 0.000000
vn 1.000000 0.000000 0.000000
vn 1.000000 0.000000 0.000000
vn 1.000000 0.000000 0.000000
vn -1.000000 0.000000 0.000000
vn -1.000000 0.000000 0.000000
vn -1.000000 0.000000 0.000000
vn -1.000000 0.000000 0.000000
vn -0.577350 -0.577343 0.577358
vn -0.577350 -0.577343 0.577358
vn -0.577350 -0.577343 0.577358
vn 0.577350 -0.577343 0.577358
vn 0.577350 -0.577343 0.577358
vn 0.577350 -0.577343 0.577358
vn -0.577350 0.577343 0.577358
vn -0.577350 0.577343 0.577358
vn -0.577350 0.577343 0.577358
vn 0.577350 0.577343 0.577358
vn 0.577350 0.577343 0.577358
vn 0.577350 0.577343 0.577358
vn -0.577350 0.577343 -0.577358
vn -0.577350 0.577343 -0.577358
vn -0.577350 0.577343 -0.577358
vn 0.577350 0.577343 -0.577358
vn 0.577350 0.577343 -0.577358
vn 0.577350 0.577343 -0.577358
vn -0.577350 -0.577343 -0.577358
vn -0.577350 -0.577343 -0.577358
vn -0.577350 -0.577343 -0.577358
vn 0.577350 -0.577343 -0.577358
vn 0.577350 -0.577343 -0.577358
vn 0.577350 -0.577343 -0.577358
vn 0.000000 -1.000000 -0.000000
vn 0.000000 -1.000000 -0.000000
vn 0.000000 -1.000000 -0.000000
vn 0.000000 -1.000000 0.000000
vn 0.000000 -1.000000 0.000000
vn 0.000000 -1.000000 0.000000
vn 0.000000 -1.000000 0.000000
vn 0.000000 -1.000000 0.000000
vn 0.000000 -1.000000 -0.000000
vn 0.000000 -1.000000 -0.000000
vn 0.000000 -1.000000 0.000000
vn 0.000000 -1.000000 0.000000
vn 0.000000 -1.000000 0.000000
vn 0.000000 -1.000000 0.000000
vn 0.000000 -1.000000 0.000000
vn 0.000000 -1.000000 -0.000000
vn 0.000000 -1.000000 0.000000
vn 0.000000 -1.000000 0.000000
vn 0.000000 -1.000000 0.000000
vn 0.000000 -1.000000 0.000000
vn 0.000000 -1.000000 0.000000
vn 0.668316 0.711478 -0.217147
vn 0.668316 0.711478 -0.217147
vn 0.702709 0.711477 0.000000
vn 0.702709 0.711477 -0.000000
vn 0.568502 0.711475 -0.413048
vn 0.568502 0.711475 -0.413048
vn 0.413042 0.711477 -0.568505
vn 0.413042 0.711477 -0.568505
vn 0.217149 0.711478 -0.668315
vn 0.217149 0.711478 -0.668315
vn 0.000000 0.711475 -0.702711
vn -0.000000 0.711475 -0.702711
vn -0.217148 0.711474 -0.668320
vn -0.217148 0.711474 -0.668320
vn -0.413045 0.711480 -0.568498
vn -0.413045 0.711480 -0.568498
vn -0.568506 0.711481 -0.413033
vn -0.568506 0.711481 -0.413033
vn -0.668317 0.711479 -0.217141
vn -0.668317 0.711479 -0.217141
vn -0.702709 0.711477 0.000000
vn -0.702709 0.711477 0.000000
vn -0.668317 0.711478 0.217145
vn -0.668317 0.711478 0.217145
vn -0.568501 0.711474 0.413052
vn -0.568501 0.711474 0.413052
vn -0.413041 0.711476 0.568506
vn -0.413041 0.711476 0.568506
vn -0.217149 0.711478 0.668315
vn -0.217149 0.711478 0.668315
vn 0.000000 0.711475 0.702712
vn 0.000000 0.711475 0.702712
vn 0.217149 0.711478 0.668315
vn 0.217149 0.711478 0.668315
vn 0.413046 0.711484 0.568493
vn 0.413046 0.711484 0.568492
vn 0.568504 0.711478 0.413041
vn 0.568504 0.711478 0.413041
vn 0.668315 0.711476 0.217156
vn 0.668315 0.711476 0.217156
vn 0.951057 0.000000 -0.309016
vn 0.809017 0.000000 -0.587785
vn 0.809017 0.000000 -0.587785
vn 0.951057 0.000000 -0.309016
vn 0.587785 0.000000 -0.809017
vn 0.587785 0.000000 -0.809017
vn 0.309017 0.000000 -0.951056
vn 0.309017 0.000000 -0.951056
vn 0.000000 0.000000 -1.000000
vn 0.000000 0.000000 -1.000000
vn -0.309017 0.000000 -0.951056
vn -0.309017 0.000000 -0.951056
vn -0.587786 0.000000 -0.809017
vn -0.587786 0.000000 -0.809017
vn -0.809017 0.000000 -0.587785
vn -0.809017 0.000000 -0.587785
vn -0.951057 0.000000 -0.309017
vn -0.951057 0.000000 -0.309017
vn -1.000000 0.000000 -0.000000
vn -1.000000 0.000000 -0.000000
vn -0.951057 0.000000 0.309017
vn -0.951057 0.000000 0.309017
vn -0.809017 0.000000 0.587785
vn -0.809017 0.000000 0.587785
vn -0.587785 0.000000 0.809017
vn -0.587785 0.000000 0.809017
vn -0.309017 0.000000 0.951057
vn -0.309017 0.000000 0.951057
vn 0.000000 0.000000 1.000000
vn 0.000000 0.000000 1.000000
vn 0.309017 0.000000 0.951057
vn 0.309017 0.000000 0.951057
vn 0.587785 0.000000 0.809017
vn 0.587785 0.000000 0.809017
vn 0.809017 0.000000 0.587785
vn 0.809017 0.000000 0.587785
vn 0.951057 0.000000 0.309017
vn 0.951057 0.000000 0.309017
vn 1.000000 0.000000 0.000001
vn 1.000000 0.000000 0.000001
vn 0.000000 1.000000 0.000000
vn 0.000000 1.000000 0.000000
vn 0.000000 1.000000 0.000000
vn 0.000000 1.000000 0.000000
vn 0.000000 1.000000 0.000000
vn 0.000000 1.000000 0.000000
vn 0.000000 1.000000 0.000007
vn 0.000000 1.000000 -0.000007
vn 0.000000 1.000000 -0.000000
vn 0.000000 1.000000 0.000015
vn 0.000000 1.000000 0.000000
vn 0.000000 1.000000 -0.000029
vn 0.000000 1.000000 -0.000015
vn 0.000000 1.000000 0.000015
vn 0.000000 1.000000 0.000000
vn 0.000000 1.000000 0.000002
vn 0.000000 1.000000 0.000010
vn 0.000000 1.000000 0.000007
vn 0.000000 1.000000 0.000000
vn 0.000000 1.000000 0.000000
vn 0.000000 1.000000 0.000000
s off
g pCube2
f 1/1/1 3/31/2 19/3/3 21/4/4
f 2/5/5 1/32/6 6/30/7 5/7/8
f 3/2/9 2/5/10 8/8/11 7/28/12
f 4/10/13 6/6/14 22/11/15 24/12/16
f 5/7/17 4/29/18 12/26/19 11/14/20
f 7/9/21 9/27/22 14/16/23 13/17/24
f 9/15/25 8/8/26 11/14/27 10/25/28
f 10/18/29 12/13/30 18/19/31 17/20/32
f 13/17/33 15/21/34 20/22/35 19/3/36
f 15/21/37 14/16/38 17/20/39 16/23/40
f 16/23/41 18/19/42 24/12/43 23/24/44
f 21/4/45 20/22/46 23/24/47 22/11/48
f 2/5/49 5/7/50 11/14/51 8/8/52
f 9/27/53 10/18/54 17/20/55 14/16/56
f 15/21/57 16/23/58 23/24/59 20/22/60
f 21/4/61 22/11/62 6/6/63 1/1/64
f 4/10/65 24/12/66 18/19/67 12/13/68
f 19/3/69 3/31/70 7/9/71 13/17/72
f 1/32/73 2/5/74 3/2/75
f 4/29/76 5/7/77 6/30/78
f 7/28/79 8/8/80 9/15/81
f 10/25/82 11/14/83 12/26/84
f 13/17/85 14/16/86 15/21/87
f 16/23/88 17/20/89 18/19/90
f 19/3/91 20/22/92 21/4/93
f 22/11/94 23/24/95 24/12/96
s 1
f 26/33/97 25/34/98 45/35/99
f 27/36/100 26/33/97 45/35/99
f 28/37/101 27/36/100 45/35/99
f 29/38/102 28/37/101 45/35/99
f 30/39/103 29/38/102 45/35/99
f 31/40/104 30/39/103 45/35/99
f 32/41/105 31/40/104 45/35/99
f 33/42/106 32/41/105 45/35/99
f 34/43/107 33/42/106 45/35/99
f 35/44/108 34/43/107 45/35/99
f 36/45/109 35/44/108 45/35/99
f 37/46/110 36/45/109 45/35/99
f 38/47/111 37/46/110 45/35/99
f 39/48/112 38/47/111 45/35/99
f 40/49/113 39/48/112 45/35/99
f 41/50/114 40/49/113 45/35/99
f 42/51/115 41/50/114 45/35/99
f 43/52/116 42/51/115 45/35/99
f 44/53/117 43/52/116 45/35/99
f 25/34/98 44/53/117 45/35/99
s 2
f 47/54/118 48/55/119 86/56/120 85/57/121
f 48/55/119 47/54/118 49/58/122 50/59/123
f 50/59/123 49/58/122 51/60/124 52/61/125
f 52/61/125 51/60/124 53/62/126 54/63/127
f 54/63/127 53/62/126 55/64/128 56/65/129
f 56/65/129 55/64/128 57/66/130 58/67/131
f 58/67/131 57/66/130 59/68/132 60/69/133
f 60/69/133 59/68/132 61/70/134 62/71/135
f 62/71/135 61/70/134 63/72/136 64/73/137
f 64/73/137 63/72/136 65/74/138 66/75/139
f 66/75/139 65/74/138 67/76/140 68/77/141
f 68/77/141 67/76/140 69/78/142 70/79/143
f 70/79/143 69/78/142 71/80/144 72/81/145
f 72/81/145 71/80/144 73/82/146 74/83/147
f 74/83/147 73/82/146 75/84/148 76/85/149
f 76/85/149 75/84/148 77/86/150 78/87/151
f 78/87/151 77/86/150 79/88/152 80/89/153
f 80/89/153 79/88/152 81/90/154 82/91/155
f 82/91/155 81/90/154 83/92/156 84/93/157
f 84/93/157 83/92/156 85/57/121 86/56/120
s 3
f 25/34/158 26/33/159 49/94/160 47/95/161
f 26/33/159 27/36/162 51/96/163 49/94/160
f 27/36/162 28/37/164 53/97/165 51/96/163
f 28/37/164 29/38/166 55/98/167 53/97/165
f 29/99/166 30/100/168 57/101/169 55/102/167
f 30/100/168 31/40/170 59/103/171 57/101/169
f 31/40/170 32/41/172 61/104/173 59/103/171
f 32/41/172 33/42/174 63/105/175 61/104/173
f 33/42/174 34/43/176 65/106/177 63/105/175
f 34/43/176 35/44/178 67/107/179 65/106/177
f 35/44/178 36/45/180 69/108/181 67/107/179
f 36/45/180 37/46/182 71/109/183 69/108/181
f 37/46/182 38/47/184 73/110/185 71/109/183
f 38/47/184 39/48/186 75/111/187 73/110/185
f 39/48/186 40/49/188 77/112/189 75/111/187
f 40/49/188 41/50/190 79/113/191 77/112/189
f 41/50/190 42/51/192 81/114/193 79/113/191
f 42/51/192 43/52/194 83/115/195 81/114/193
f 43/52/194 44/53/196 85/116/197 83/115/195
f 44/53/196 25/34/158 47/95/161 85/116/197
s 4
f 48/55/198 50/59/199 46/117/200
f 50/59/199 52/61/201 46/117/200
f 52/61/201 54/63/202 46/117/200
f 54/63/202 56/65/203 46/117/200
f 56/65/203 58/67/204 46/117/200
f 58/67/204 60/69/205 46/117/200
f 60/69/205 62/71/206 46/117/200
f 62/71/206 64/73/207 46/117/200
f 64/73/207 66/75/208 46/117/200
f 66/75/208 68/77/209 46/117/200
f 68/77/209 70/79/210 46/117/200
f 70/79/210 72/81/211 46/117/200
f 72/81/211 74/83/212 46/117/200
f 74/83/212 76/85/213 46/117/200
f 76/85/213 78/87/214 46/117/200
f 78/87/214 80/89/215 46/117/200
f 80/89/215 82/91/216 46/117/200
f 82/91/216 84/93/217 46/117/200
f 84/93/217 86/56/218 46/117/200
f 86/56/218 48/55/198 46/117/200
